<svg xmlns="http://www.w3.org/2000/svg" xmlns:lucid="lucid" width="1874.15" height="968.92"><g lucid:page-tab-id="0_0"><path d="M1788 230h50v60h-50z" stroke="#000" stroke-width="2" fill="#999"/><path d="M1793 290l35 10" stroke="#000" fill="#999"/><path d="M327.78 32.5l6.25-6.25V20H20l6.25 6.25 6.25 6.25z" fill="#fff"/><path d="M327.78 32.5H32.5M20 20h314.03m-6.25 12.5" stroke="#000" stroke-width="2" fill="none"/><path d="M32.5 32.5l-6.25-6.25L20 20v397.33h6.25l6.25-6.25zm0 391.08l-6.25-6.25H20v134.25h6.25l6.25-6.25zm0 134.25l-6.25-6.25H20v397.34l6.25-6.25 6.25-6.25z" fill="#fff"/><path d="M32.5 32.5v378.58M20 417.33V20m12.5 403.58v121.75M20 551.58V417.33m12.5 140.5v378.6M20 948.92V551.57m12.5 6.25" stroke="#000" stroke-width="2" fill="none"/><path d="M635.55 32.5l6.25-6.25V20H334.03v6.25l6.25 6.25z" fill="#fff"/><path d="M635.55 32.5H340.28M334.03 20H641.8m-6.25 12.5" stroke="#000" stroke-width="2" fill="none"/><path d="M340.28 32.5l-6.25-6.25-6.25 6.25v378.58l6.25 6.25 6.25-6.25z" fill="#fff"/><path d="M340.28 32.5v378.58m-12.5 0V32.5m12.5 0" stroke="#000" stroke-width="2" fill="none"/><path d="M648.05 32.5l-6.25-6.25-6.25 6.25v378.58l6.25 6.25 6.25-6.25z" fill="#fff"/><path d="M648.05 32.5v378.58m-12.5 0V32.5m12.5 0" stroke="#000" stroke-width="2" fill="none"/><path d="M1841.65 231.17l6.25-6.25 6.25-6.25h-282.77l-6.25 6.25 6.25 6.25z" fill="#fff"/><path d="M1841.65 231.17h-270.27m0-12.5h282.77m-12.5 12.5" stroke="#000" stroke-width="2" fill="none"/><path d="M32.5 936.42l-6.25 6.25-6.25 6.25h314.03v-6.25l-6.25-6.25z" fill="#fff"/><path d="M32.5 936.42h295.28m6.25 12.5H20m12.5-12.5" stroke="#000" stroke-width="2" fill="none"/><path d="M340.28 936.42l-6.25 6.25v6.25H641.8v-6.25l-6.25-6.25z" fill="#fff"/><path d="M340.28 936.42h295.27m6.25 12.5H334.03m6.25-12.5" stroke="#000" stroke-width="2" fill="none"/><path d="M648.05 936.42l-6.25 6.25v6.25h307.78v-6.25l-6.25-6.25z" fill="#fff"/><path d="M648.05 936.42h295.28m6.25 12.5H641.8m6.25-12.5" stroke="#000" stroke-width="2" fill="none"/><path d="M955.83 936.42l-6.25 6.25v6.25h307.77v-6.25l-6.25-6.25z" fill="#fff"/><path d="M955.83 936.42h295.27m6.25 12.5H949.58m6.25-12.5" stroke="#000" stroke-width="2" fill="none"/><path d="M1263.6 936.42l-6.25 6.25v6.25h314.03l-6.25-6.25-6.25-6.25z" fill="#fff"/><path d="M1263.6 936.42h295.28m12.5 12.5h-314.03m6.25-12.5" stroke="#000" stroke-width="2" fill="none"/><path d="M1558.88 936.42l6.25 6.25 6.25 6.25V558.25l-6.25-6.25-6.25 6.25z" fill="#fff"/><path d="M1558.88 936.42V558.25m12.5 0v390.67m-12.5-12.5" stroke="#000" stroke-width="2" fill="none"/><path d="M32.5 411.08l-6.25 6.25 6.25 6.25h301.53v-6.25l-6.25-6.25z" fill="#fff"/><path d="M32.5 411.08h295.28m6.25 12.5H32.5m0-12.5" stroke="#000" stroke-width="2" fill="none"/><path d="M340.28 411.08l-6.25 6.25v6.25H641.8v-6.25l-6.25-6.25z" fill="#fff"/><path d="M340.28 411.08h295.27m6.25 12.5H334.03m6.25-12.5" stroke="#000" stroke-width="2" fill="none"/><path d="M1565.13 545.75V552l6.25 6.25h282.77l-6.25-6.25-6.25-6.25z" fill="#fff"/><path d="M1565.13 545.75h276.52m12.5 12.5h-282.77m-6.25-12.5" stroke="#000" stroke-width="2" fill="none"/><path d="M1854.15 218.67l-6.25 6.25-6.25 6.25v179.9l6.25 6.26h6.25zm0 198.66h-6.25l-6.25 6.25v122.17l6.25 6.25 6.25 6.25z" fill="#fff"/><path d="M1854.15 218.67v198.66m-12.5-6.25v-179.9m12.5 186.15v140.92m-12.5-12.5V423.58m12.5-6.25" stroke="#000" stroke-width="2" fill="none"/><g stroke="#000" stroke-width="2" fill="#fff"><path d="M1746.1 544V410.67h18.4V544zM1764.5 544V410.67h18.4V544zM1782.9 544V410.67h18.4V544z"/><path d="M1801.3 544V410.67h18.4V544zM1819.7 544V410.67h18.4V544z"/></g><path d="M1740.42 411.08v12.5h101.23l6.25-6.25-6.25-6.25z" fill="#fff"/><path d="M1740.42 411.08h101.23m0 12.5h-101.23v-12.5" stroke="#000" stroke-width="2" fill="none"/><g stroke="#000" stroke-width="2"><path d="M1641.63 279.56l-4.57-2.56 6.44-10.8c1.75-3.08 6.38-.45 4.63 2.55l-6.5 10.8zM1612.75 279.56l4.56-2.56-6.42-10.8c-1.75-3.08-6.38-.45-4.63 2.55l6.5 10.8z"/><path d="M1598.3 293.5c0 15.37 12.95 27.87 28.9 27.87 15.93 0 28.86-12.5 28.86-27.87 0-15.38-12.93-27.88-28.87-27.88-15.95 0-28.9 12.5-28.9 27.88z" fill="#ccc"/><path d="M1656.06 323.62c-28.87 5.13-28.87 5.2-57.75 0-4.74-5.56-1.3-11.8 2.95-13.87 1.75-.8 12.38 3.2 25.94 3.2 13.55.05 24.24-4 26-3.2 4.24 2 7.68 8.3 2.86 13.87z" fill="#666"/><path d="M1656.06 322.25c-28.87 5.12-28.87 5.2-57.75 0-4.74-5.56-1.3-11.8 2.95-13.88 1.75-.8 12.38 3.2 25.94 3.2 13.55 0 24.24-4 26-3.2 4.24 2 7.68 8.32 2.86 13.88z" fill="#ccc"/><path d="M1658 306.87h-6.25v-25.5c4.3-1.8 4.3-1.8 6.25 0v25.5zM1602.63 306.87h-6.25v-25.5c1.93-1.8 1.93-1.8 6.25 0v25.5z" fill="#666"/></g><path d="M1646 235h50v60h-50z" stroke="#000" stroke-width="2" fill="#999"/><path d="M1651 297.5h40m-40 2.5h40" stroke="#000" fill="#999"/><path d="M1576 235h120v60h-120z" stroke="#000" stroke-width="2" fill="#eee"/><path d="M1576 295v-60h120v60" stroke="#000" stroke-width="5" fill="none"/><path d="M1616.52 255.06h20.52c1.68 0 3.06 1.35 3.06 3v5c0 1.7-1.38 3.04-3.06 3.04h-20.52c-1.68 0-3-1.35-3-3.03v-5c0-1.66 1.32-3 3-3z" stroke="#000" fill="#ddd"/><path d="M1606.26 263.07h41.04l4.08 3.03h-49.2l4.08-3.03zM1615.92 261.06h21.72v1.92h-21.72v-1.92zM1626.78 256.83c-.78 0-1.44.66-1.44 1.47 0 .3.06.57.24.8v1.87h2.46v-1.86c.12-.23.24-.5.24-.8 0-.8-.66-1.47-1.5-1.47zM1596.06 271.6h49.2V285h-49.2v-13.4z" stroke="#000" fill="#ddd"/><path d="M1598.1 273.57h35.88v9.27h-35.88v-9.27zM1636.02 273.57h7.2v9.27h-7.2v-9.27z" stroke="#000" fill="#6f6f6f"/><path d="M1653.18 275c-.78 0-1.32.58-1.32 1.3v4.04c0 1.12.9 2.05 2.04 2.05 1.14 0 2.04-.94 2.04-2.05v-.2-3.85c0-.72-.6-1.3-1.32-1.3h-1.44zM1653.9 275v2.77" stroke="#000" fill="#ddd"/><path d="M943.33 32.5l6.25-6.25V20H641.8v6.25l6.25 6.25z" fill="#fff"/><path d="M943.33 32.5H648.05M641.8 20h307.78m-6.25 12.5" stroke="#000" stroke-width="2" fill="none"/><path d="M955.83 32.5l-6.25-6.25-6.25 6.25v378.58l6.25 6.25 6.25-6.25z" fill="#fff"/><path d="M955.83 32.5v378.58m-12.5 0V32.5m12.5 0" stroke="#000" stroke-width="2" fill="none"/><g><path d="M648.05 411.08l-6.25 6.25v6.25h307.78v-6.25l-6.25-6.25z" fill="#fff"/><path d="M648.05 411.08h295.28m6.25 12.5H641.8m6.25-12.5" stroke="#000" stroke-width="2" fill="none"/></g><g><path d="M1251.1 32.5l6.25-6.25V20H949.58v6.25l6.25 6.25z" fill="#fff"/><path d="M1251.1 32.5H955.83M949.58 20h307.77m-6.25 12.5" stroke="#000" stroke-width="2" fill="none"/></g><g><path d="M1263.6 32.5l-6.25-6.25-6.25 6.25v378.58l6.25 6.25 6.25-6.25z" fill="#fff"/><path d="M1263.6 32.5v378.58m-12.5 0V32.5m12.5 0" stroke="#000" stroke-width="2" fill="none"/></g><g><path d="M955.83 411.08l-6.25 6.25v6.25h307.77v-6.25l-6.25-6.25z" fill="#fff"/><path d="M955.83 411.08h295.27m6.25 12.5H949.58m6.25-12.5" stroke="#000" stroke-width="2" fill="none"/></g><g><path d="M1558.88 32.5l6.25-6.25 6.25-6.25h-314.03v6.25l6.25 6.25z" fill="#fff"/><path d="M1558.88 32.5H1263.6m-6.25-12.5h314.03m-12.5 12.5" stroke="#000" stroke-width="2" fill="none"/></g><g><path d="M1571.38 20l-6.25 6.25-6.25 6.25v192.42h6.25l6.25-6.25zm0 211.17l-6.25-6.25h-6.25v186.16l6.25 6.25 6.25 6.25z" fill="#fff"/><path d="M1571.38 20v198.67m-12.5 6.25V32.5m12.5 198.67v192.4m-12.5-12.5V224.93m12.5 6.25" stroke="#000" stroke-width="2" fill="none"/></g><g><path d="M1263.6 411.08l-6.25 6.25v6.25h314.03l-6.25-6.25-6.25-6.25z" fill="#fff"/><path d="M1263.6 411.08h295.28m12.5 12.5h-314.03m6.25-12.5" stroke="#000" stroke-width="2" fill="none"/></g><g><path d="M327.78 557.83l6.25-6.25v-6.25H32.5l-6.25 6.25 6.25 6.25z" fill="#fff"/><path d="M327.78 557.83H32.5m0-12.5h301.53m-6.25 12.5" stroke="#000" stroke-width="2" fill="none"/></g><g><path d="M340.28 557.83l-6.25-6.25-6.25 6.25v378.6l6.25 6.24 6.25-6.25z" fill="#fff"/><path d="M340.28 557.83v378.6m-12.5 0v-378.6m12.5 0" stroke="#000" stroke-width="2" fill="none"/></g><g><path d="M635.55 557.83l6.25-6.25v-6.25H334.03v6.25l6.25 6.25z" fill="#fff"/><path d="M635.55 557.83H340.28m-6.25-12.5H641.8m-6.25 12.5" stroke="#000" stroke-width="2" fill="none"/></g><g><path d="M648.05 557.83l-6.25-6.25-6.25 6.25v378.6l6.25 6.24 6.25-6.25z" fill="#fff"/><path d="M648.05 557.83v378.6m-12.5 0v-378.6m12.5 0" stroke="#000" stroke-width="2" fill="none"/></g><g><path d="M943.33 557.83l6.25-6.25v-6.25H641.8v6.25l6.25 6.25z" fill="#fff"/><path d="M943.33 557.83H648.05m-6.25-12.5h307.78m-6.25 12.5" stroke="#000" stroke-width="2" fill="none"/></g><g><path d="M955.83 557.84l-6.25-6.26-6.25 6.25v378.6l6.25 6.24 6.25-6.25z" fill="#fff"/><path d="M955.83 557.84v378.58m-12.5 0v-378.6m12.5.02" stroke="#000" stroke-width="2" fill="none"/></g><g><path d="M1251.1 558.24l6.25-6.24v-6.25l-307.77-.42v6.25l6.25 6.26z" fill="#fff"/><path d="M1251.1 558.24l-295.27-.4m-6.25-12.5l307.78.4m-6.26 12.5" stroke="#000" stroke-width="2" fill="none"/></g><g><path d="M1263.6 558.25l-6.25-6.25-6.25 6.24v378.18l6.25 6.25 6.25-6.25z" fill="#fff"/><path d="M1263.6 558.25v378.17m-12.5 0V558.24m12.5 0" stroke="#000" stroke-width="2" fill="none"/></g><g><path d="M1558.88 558.25l6.25-6.25v-6.25h-307.77V552l6.24 6.25z" fill="#fff"/><path d="M1558.88 558.25H1263.6m-6.24-12.5h307.77m-6.25 12.5" stroke="#000" stroke-width="2" fill="none"/></g></g></svg>